HIERARCHY
ROOT Hips
{
	OFFSET 0.000000 0.000000 0.000000
	CHANNELS 6 Xposition Yposition Zposition Zrotation Yrotation Xrotation 
	JOINT LHipJoint
	{
		OFFSET 0.000000 0.000000 0.000000
		CHANNELS 3 Zrotation Yrotation Xrotation
		JOINT LeftUpLeg
		{
			OFFSET 1.363060 -1.794630 0.839290
			CHANNELS 3 Zrotation Yrotation Xrotation
			JOINT LeftLeg
			{
				OFFSET 2.448110 -6.726130 0.000000
				CHANNELS 3 Zrotation Yrotation Xrotation
				JOINT LeftFoot
				{
					OFFSET 2.562200 -7.039590 0.000000
					CHANNELS 3 Zrotation Yrotation Xrotation
					JOINT LeftToeBase
					{
						OFFSET 0.157640 -0.433110 2.322550
						CHANNELS 3 Zrotation Yrotation Xrotation
						End Site
						{
							OFFSET 0.000000 0.000000 0.000000
						}
					}
				}
			}
		}
	}
	JOINT RHipJoint
	{
		OFFSET 0.000000 0.000000 0.000000
		CHANNELS 3 Zrotation Yrotation Xrotation
		JOINT RightUpLeg
		{
			OFFSET -1.305520 -1.794630 0.839290
			CHANNELS 3 Zrotation Yrotation Xrotation
			JOINT RightLeg
			{
				OFFSET -2.542530 -6.985550 0.000000
				CHANNELS 3 Zrotation Yrotation Xrotation
				JOINT RightFoot
				{
					OFFSET -2.568260 -7.056230 0.000000
					CHANNELS 3 Zrotation Yrotation Xrotation
					JOINT RightToeBase
					{
						OFFSET -0.164730 -0.452590 2.363150
						CHANNELS 3 Zrotation Yrotation Xrotation
						End Site
						{
							OFFSET 0.000000 0.000000 0.000000
						}
					}
				}
			}
		}
	}
	JOINT LowerBack
	{
		OFFSET 0.000000 0.000000 0.000000
		CHANNELS 3 Zrotation Yrotation Xrotation
		JOINT Spine
		{
			OFFSET 0.028270 2.035590 -0.193380
			CHANNELS 3 Zrotation Yrotation Xrotation
			JOINT Spine1
			{
				OFFSET 0.056720 2.048850 -0.042750
				CHANNELS 3 Zrotation Yrotation Xrotation
				JOINT Neck
				{
					OFFSET 0.000000 0.000000 0.000000
					CHANNELS 3 Zrotation Yrotation Xrotation
					JOINT Neck1
					{
						OFFSET -0.054170 1.746240 0.172020
						CHANNELS 3 Zrotation Yrotation Xrotation
						JOINT Head
						{
							OFFSET 0.104070 1.761360 -0.123970
							CHANNELS 3 Zrotation Yrotation Xrotation
							End Site
							{
								OFFSET 0.000000 0.000000 0.000000
							}
						}
					}
				}
				JOINT LeftShoulder
				{
					OFFSET 0.000000 0.000000 0.000000
					CHANNELS 3 Zrotation Yrotation Xrotation
					JOINT LeftArm
					{
						OFFSET 3.362410 1.200890 -0.311210
						CHANNELS 3 Zrotation Yrotation Xrotation
						JOINT LeftForeArm
						{
							OFFSET 4.983000 -0.000000 -0.000000
							CHANNELS 3 Zrotation Yrotation Xrotation
							JOINT LeftHand
							{
								OFFSET 3.483560 -0.000000 -0.000000
								CHANNELS 3 Zrotation Yrotation Xrotation
								JOINT LeftFingerBase
								{
									OFFSET 0.000000 0.000000 0.000000
									CHANNELS 3 Zrotation Yrotation Xrotation
									JOINT LeftHandIndex1
									{
										OFFSET 0.715260 -0.000000 -0.000000
										CHANNELS 3 Zrotation Yrotation Xrotation
										End Site
										{
											OFFSET 0.000000 0.000000 0.000000
										}
									}
								}
								JOINT LThumb
								{
									OFFSET 0.000000 0.000000 0.000000
									CHANNELS 3 Zrotation Yrotation Xrotation
									End Site
									{
										OFFSET 0.000000 0.000000 0.000000
									}
								}
							}
						}
					}
				}
				JOINT RightShoulder
				{
					OFFSET 0.000000 0.000000 0.000000
					CHANNELS 3 Zrotation Yrotation Xrotation
					JOINT RightArm
					{
						OFFSET -3.136600 1.374050 -0.404650
						CHANNELS 3 Zrotation Yrotation Xrotation
						JOINT RightForeArm
						{
							OFFSET -5.241900 -0.000000 -0.000000
							CHANNELS 3 Zrotation Yrotation Xrotation
							JOINT RightHand
							{
								OFFSET -3.444170 -0.000000 -0.000000
								CHANNELS 3 Zrotation Yrotation Xrotation
								JOINT RightFingerBase
								{
									OFFSET 0.000000 0.000000 0.000000
									CHANNELS 3 Zrotation Yrotation Xrotation
									JOINT RightHandIndex1
									{
										OFFSET -0.622530 -0.000000 -0.000000
										CHANNELS 3 Zrotation Yrotation Xrotation
										End Site
										{
											OFFSET 0.000000 0.000000 0.000000
										}
									}
								}
								JOINT RThumb
								{
									OFFSET 0.000000 0.000000 0.000000
									CHANNELS 3 Zrotation Yrotation Xrotation
									End Site
									{
										OFFSET 0.000000 0.000000 0.000000
									}
								}
							}
						}
					}
				}
			}
		}
	}
}
MOTION
Frames: 10
Frame Time: 0.008333
-0.316903 12.091455 13.675765 -1.051556 -3.510955 -14.327452 -1.650649 -1.821932 -1.606179 -4.313716 -1.718604 -46.666790 27.017014 19.005246 110.681356 3.586233 -16.051196 -18.868717 2.229300 -9.328300 -26.827700 3.049030 1.751462 -0.487501 11.045108 2.653053 -50.224508 -25.544211 -18.113184 106.708476 -1.761844 0.894216 -21.913317 -0.802700 -5.718300 15.969100 -1.624299 1.255010 28.817939 0.167617 1.541210 2.256742 2.448178 0.203145 -6.693114 3.389174 5.915758 -3.521327 -3.653103 8.950727 24.092505 -2.320900 4.308300 10.573800 2.554077 5.789504 -0.613799 -94.273688 0.071087 18.140219 25.768996 -42.989357 -10.347468 -0.387056 1.099110 -8.058104 20.856805 -19.380484 -7.717700 -7.125000 0.000000 0.000000 -4.735600 8.132200 4.032200 -0.974426 -6.664389 -1.541277 82.520813 23.789829 31.428874 -15.698163 35.467101 -4.955254 -0.580418 -1.173474 -0.141661 -15.807065 -36.470329 8.950900 7.125000 0.000000 0.000000 23.255300 -64.885500 -11.475200 
-0.331670 12.218701 13.914479 -1.031429 -3.172036 -13.847275 -1.715526 -1.802614 -1.537394 -4.564949 -1.688191 -45.479708 26.778676 19.088751 109.894705 3.679420 -16.129112 -19.267812 2.216000 -9.302100 -26.745100 3.060029 1.774330 -0.489033 11.302725 1.983862 -48.964600 -25.323750 -18.241878 106.001222 -1.844257 0.531383 -23.254718 -0.830800 -5.815100 16.248800 -2.141158 1.256038 28.697961 0.135272 1.406639 2.320092 2.790587 0.140482 -6.570667 3.486942 6.453797 -3.969452 -4.020159 9.802719 24.182500 -2.351900 4.648800 10.786600 2.544494 5.749714 -0.601115 -94.469227 0.522335 19.763654 24.412430 -41.889166 -9.415635 -0.307027 1.060820 -3.477877 16.702653 -18.623552 -5.872000 -7.125000 0.000000 0.000000 -7.344000 9.571700 6.072100 -0.927315 -6.645239 -1.574614 82.117320 24.159901 32.460498 -17.589139 37.567183 -5.869020 -0.521243 -1.121491 0.430742 -17.269635 -36.592276 9.924000 7.125000 0.000000 0.000000 21.701000 -65.457000 -10.958900 
-0.347045 12.395005 14.138728 -1.177155 -2.866795 -12.952669 -1.770175 -1.790160 -1.475164 -4.580909 -1.857027 -44.428844 26.371202 19.231677 108.528355 3.808971 -16.517511 -19.634377 2.216700 -9.303600 -26.749700 3.071344 1.792782 -0.487307 11.746896 1.566222 -47.879153 -24.907654 -18.410829 104.709115 -1.890185 0.131268 -24.301852 -0.862900 -5.923400 16.562300 -2.305502 1.265130 28.185492 0.054055 1.372192 2.217438 2.782359 0.137872 -6.524984 3.881697 6.944776 -3.835175 -4.539213 10.550535 24.020382 -2.532000 4.979200 10.814100 2.519252 5.685637 -0.597257 -94.238906 1.470362 21.738288 23.669555 -41.313174 -8.883569 -0.253782 1.013828 -0.163785 14.068729 -18.598065 -4.900500 -7.125000 0.000000 0.000000 -9.034800 9.978300 7.428000 -0.884200 -6.616753 -1.594932 81.854458 23.874131 32.820855 -19.426573 39.491841 -6.829763 -0.431126 -1.068190 0.589275 -18.005010 -35.528233 10.175800 7.125000 0.000000 0.000000 19.678900 -64.738300 -9.573200 
-0.361408 12.608330 14.349221 -1.415675 -2.576108 -11.795342 -1.822821 -1.783544 -1.416997 -4.522512 -2.120935 -43.470837 25.787413 19.421197 106.594061 3.964022 -16.922072 -20.050778 2.279800 -9.426000 -27.137300 3.084976 1.806436 -0.482380 12.281174 1.309523 -46.930924 -24.325040 -18.600987 102.930273 -1.885349 -0.279274 -24.934176 -0.862000 -5.920500 16.553900 -2.140663 1.343177 27.439250 -0.048037 1.512018 1.970585 2.499849 0.230331 -6.602727 4.296165 7.296878 -3.188632 -5.135943 11.091758 23.596967 -2.797400 5.235400 10.633500 2.494061 5.605949 -0.594377 -93.859738 2.522223 23.696567 23.040228 -40.838294 -8.458870 -0.214009 0.969212 2.449108 12.893559 -19.367739 -4.641100 -7.125000 0.000000 0.000000 -9.807200 9.392100 8.199600 -0.841427 -6.572983 -1.608070 81.490953 22.869401 32.545096 -21.375741 41.376061 -7.883701 -0.322077 -1.056166 0.151631 -17.699399 -35.123377 9.949500 7.125000 0.000000 0.000000 19.505400 -64.299200 -9.287000 
-0.369096 12.852304 14.545249 -1.483956 -2.151876 -10.713328 -1.903219 -1.775724 -1.352292 -4.823587 -2.466600 -42.384765 25.038213 19.627843 104.250732 4.044242 -16.920057 -20.156437 2.336400 -9.534100 -27.480800 3.114042 1.828089 -0.479632 12.551839 0.921905 -45.840092 -23.601209 -18.804558 100.747727 -1.827148 -0.711729 -25.187743 -0.792400 -5.682300 15.865500 -2.046703 1.446370 26.924294 -0.200698 1.655022 1.825173 2.191459 0.314475 -6.624444 4.407281 7.712291 -3.714285 -5.148653 11.724219 23.870576 -2.704900 5.508800 10.896700 2.451550 5.567943 -0.598017 -93.460093 3.143055 25.415278 22.529844 -40.432755 -8.129290 -0.194330 0.933700 4.686440 12.541687 -19.607117 -4.559000 -7.125000 0.000000 0.000000 -10.027800 9.236100 8.421800 -0.817829 -6.509759 -1.617506 81.167665 21.878689 31.962035 -23.245934 43.067532 -8.937039 -0.208884 -1.066964 -0.877099 -16.665655 -34.877940 9.326400 7.125000 0.000000 0.000000 20.301400 -63.795600 -9.442900 
-0.374153 13.133096 14.730151 -1.460866 -1.674264 -9.779354 -2.003511 -1.764713 -1.277779 -5.351401 -2.680790 -41.126194 24.134394 19.828651 101.552600 4.018403 -16.575461 -19.756095 2.333700 -9.529000 -27.464600 3.149572 1.853347 -0.478440 12.729940 0.501568 -44.487898 -22.737734 -19.012583 98.171292 -1.707650 -1.205569 -25.083519 -0.724500 -5.438800 15.164500 -2.051837 1.508504 26.486425 -0.362158 1.715593 1.699357 1.928934 0.360937 -6.647708 4.823358 8.166938 -3.619481 -5.716158 12.423759 23.544339 -2.904900 5.817400 10.882300 2.416626 5.503298 -0.597159 -93.068136 3.777870 26.586006 22.267440 -40.237315 -7.960235 -0.183022 0.911672 6.322614 12.648764 -19.928760 -4.664700 -7.125000 0.000000 0.000000 -9.959600 8.932100 8.424200 -0.800318 -6.470803 -1.620010 80.923530 20.636013 31.613136 -24.902243 44.473504 -9.886359 -0.100182 -1.084637 -2.237987 -15.281965 -34.605212 8.497300 7.125000 0.000000 0.000000 21.455000 -63.174700 -9.692100 
-0.383864 13.445244 14.906557 -1.453187 -1.216391 -8.933903 -2.105876 -1.748288 -1.197794 -5.877134 -2.701702 -39.767385 23.094748 20.006271 98.513710 3.930130 -16.221003 -18.929252 2.287300 -9.440400 -27.182900 3.185412 1.883505 -0.481742 12.982891 0.169399 -42.987116 -21.762007 -19.198834 95.279082 -1.560843 -1.598963 -24.593915 -0.756100 -5.553600 15.494500 -2.189496 1.561404 26.092108 -0.468035 1.743027 1.652507 1.830828 0.385949 -6.562299 5.313831 8.713036 -3.513993 -6.545261 13.274541 22.961265 -3.197600 6.180200 10.819400 2.391397 5.439008 -0.596241 -92.775562 4.224448 27.218014 22.245030 -40.231252 -7.924144 -0.181477 0.892443 7.204155 11.834254 -19.386758 -4.252900 -7.125000 0.000000 0.000000 -10.459700 9.583500 8.722900 -0.794132 -6.451364 -1.615335 80.796233 19.499695 31.426869 -26.125791 45.462115 -10.596801 -0.013233 -1.098318 -3.487300 -13.972955 -34.227623 7.696500 7.125000 0.000000 0.000000 22.437200 -62.487000 -9.795800 
-0.396305 13.772869 15.077399 -1.505201 -0.708032 -8.128152 -2.205375 -1.729994 -1.116846 -6.298605 -2.687777 -38.367808 21.954722 20.139048 95.221327 3.810970 -16.026356 -17.752881 2.194400 -9.259700 -26.611200 3.223459 1.916689 -0.482820 13.334863 -0.153188 -41.376378 -20.685466 -19.347919 92.107154 -1.391600 -1.967226 -23.877750 -0.843800 -5.859000 16.376000 -2.291170 1.642807 25.704688 -0.561908 1.821878 1.627158 1.718415 0.430560 -6.444554 5.510813 9.224419 -3.573349 -6.966838 14.041143 22.508879 -3.281800 6.509400 10.775200 2.367372 5.394166 -0.600306 -92.483733 4.560921 27.438396 22.237572 -40.222734 -7.910555 -0.190931 0.872286 7.549900 10.753591 -18.284286 -3.662900 -7.125000 0.000000 0.000000 -11.131900 10.808500 9.023400 -0.799794 -6.421703 -1.600009 80.754708 18.291625 31.114946 -26.911988 46.069252 -11.060099 0.044735 -1.100120 -4.320353 -13.203128 -33.675467 7.174500 7.125000 0.000000 0.000000 22.707100 -61.793300 -9.547800 
-0.408342 14.108484 15.244903 -1.570269 -0.036214 -7.412895 -2.315681 -1.711491 -1.027289 -6.693270 -2.829025 -36.807778 20.716245 20.210186 91.685097 3.679050 -15.852632 -16.401602 2.156100 -9.183800 -26.372100 3.270812 1.948326 -0.470416 13.696720 -0.653791 -39.580637 -19.497642 -19.454017 88.633832 -1.157907 -2.563602 -23.061832 -0.885400 -5.998100 16.778900 -2.158415 1.818584 25.359164 -0.740514 2.062795 1.473932 1.278638 0.558887 -6.555038 5.769600 9.519505 -3.413406 -6.953608 14.449656 22.499551 -3.267600 6.730600 10.792100 2.326734 5.344410 -0.620065 -91.880777 5.189507 27.700944 22.088596 -40.088775 -7.835516 -0.208726 0.839077 7.409472 9.429200 -16.906884 -2.990300 -7.125000 0.000000 0.000000 -11.987500 12.320200 9.365800 -0.807109 -6.362021 -1.573915 80.781741 16.398134 30.317536 -27.384346 46.403282 -11.344966 0.080873 -1.094983 -4.497901 -12.710275 -33.250640 6.838200 7.125000 0.000000 0.000000 22.819000 -61.293200 -9.326500 
-0.419570 14.461699 15.410789 -1.627311 0.891449 -6.806187 -2.453887 -1.687991 -0.926707 -7.102419 -3.301376 -34.904693 19.362605 20.207967 87.842752 3.563038 -15.589630 -15.124881 2.306300 -9.476900 -27.298800 3.324987 1.984411 -0.453315 14.009060 -1.391621 -37.633204 -18.213402 -19.499917 84.888975 -0.886429 -3.263800 -22.120012 -0.954700 -6.222100 17.430200 -1.980408 1.919184 25.076358 -0.881135 2.224764 1.363180 0.905419 0.645710 -6.621006 6.155646 9.806982 -3.256573 -7.190279 14.903499 22.561606 -3.360600 6.959900 10.885900 2.297605 5.295893 -0.635535 -91.395231 5.611504 27.656804 21.821394 -39.839982 -7.708168 -0.228323 0.803052 6.917354 7.874617 -15.414999 -2.299100 -7.125000 0.000000 0.000000 -13.032900 13.936400 9.771500 -0.816821 -6.314269 -1.549350 80.747522 14.565072 29.586938 -27.392972 46.374460 -11.350231 0.090680 -1.088975 -4.176741 -12.322325 -33.173163 6.620300 7.125000 0.000000 0.000000 23.148200 -61.135900 -9.382500 
